# xmcd
#
# Track frame offsets:
#	150
#	15495
#	30092
#	44220
#	58375
#	80777
#	97657
#	111482
#	135420
#	150732
#	165285
#	179400
#	193517
#	215882
#	232780
#	246595
#
# Disc length: 3609 seconds
#
# Revision: 1
# Processed by: cddbd v1.5.2PL0 Copyright (c) Steve Scherf et al.
# Submitted via: audiograbber 1.83.01
#
DISCID=d60e1710
DTITLE=Conway Twitty - sc2140
DYEAR=1900
DGENRE=
TTITLE0=You've Never Been This Far Before
TTITLE1=Between Her Blue Eyes And Jeans
TTITLE2=Happy Birthday Darling
TTITLE3=Next In Line
TTITLE4=That's My Job
TTITLE5=I'd Love To Lay You Down
TTITLE6=I May Never Get To Heaven
TTITLE7=Red Neckin' Love Makin' Night
TTITLE8=You've Never Been This Far Before (vocal)
TTITLE9=Between Her Blue Eyes And Jeans (vocal)
TTITLE10=Happy Birthday Darling (vocal)
TTITLE11=Next In Line (vocal)
TTITLE12=That's My Job (vocal)
TTITLE13=I'd Love To Lay You Down (vocal)
TTITLE14=I May Never Get To Heaven (vocal)
TTITLE15=Red Neckin' Love Makin' Night (vocal)
EXTD=
EXTT0=
EXTT1=
EXTT2=
EXTT3=
EXTT4=
EXTT5=
EXTT6=
EXTT7=
EXTT8=
EXTT9=
EXTT10=
EXTT11=
EXTT12=
EXTT13=
EXTT14=
EXTT15=
PLAYORDER=
